<?xml version="1.0" encoding="UTF-8"?>
<svg version="1.1" xmlns="http://www.w3.org/2000/svg" width="512" height="512">
<path d="M0 0 C25.56425737 23.02861558 37.96148747 61.97596373 47 94 C47.4125 93.55197021 47.825 93.10394043 48.25 92.64233398 C50.16242482 90.57009576 52.08116219 88.50380068 54 86.4375 C54.64839844 85.73302734 55.29679687 85.02855469 55.96484375 84.30273438 C60.39686216 79.54160568 65.02316073 75.18532822 70 71 C70.85585693 70.26922241 70.85585693 70.26922241 71.72900391 69.52368164 C81.83990039 60.96158123 92.63404682 53.78497874 104 47 C104.5995752 46.64083496 105.19915039 46.28166992 105.81689453 45.91162109 C110.88599799 42.90855439 115.05854743 40.60692257 121 40 C124.1875 40.9375 124.1875 40.9375 127 43 C137.36773331 66.3918759 134.94811572 100.25377465 131 125 C131.93457031 124.5153125 132.86914062 124.030625 133.83203125 123.53125 C158.9405486 110.65417217 193.97619188 93.12457629 223 96 C225.73525894 97.2612145 227.49265936 98.35001575 229.34765625 100.7265625 C230.29430613 104.02566568 229.8878934 107.03088731 229.4375 110.375 C229.34162598 111.11540527 229.24575195 111.85581055 229.14697266 112.61865234 C223.94632729 149.83745117 208.90964803 185.56230614 187 216 C187.84892822 216.06469482 188.69785645 216.12938965 189.57250977 216.19604492 C218.26121223 218.45080701 218.26121223 218.45080701 232 221.4375 C232.90435791 221.63045654 233.80871582 221.82341309 234.74047852 222.0222168 C240.3086052 223.31871559 245.0284024 225.15828001 250 228 C251.87781442 231.75562883 251.9388342 235.01271594 251 239 C248.10737382 244.01782092 244.61794375 248.48854552 241 253 C239.83597656 254.48113281 239.83597656 254.48113281 238.6484375 255.9921875 C231.39780293 265.03626525 223.89296282 273.55329757 215 281 C214.08992188 281.80953125 213.17984375 282.6190625 212.2421875 283.453125 C173.66775684 317.52875459 120.28524215 337.66111173 69 339 C67.77152344 339.03996094 66.54304688 339.07992188 65.27734375 339.12109375 C45.9469746 339.45003897 26.62455765 336.9998575 7.97265625 331.90234375 C-4.91027983 328.66049147 -17.76270439 331.30667965 -30.26953125 334.7578125 C-36.77301041 336.53423186 -43.29195987 337.34444153 -50 338 C-51.0725 338.11085938 -52.145 338.22171875 -53.25 338.3359375 C-84.86953773 341.20339558 -117.13917998 336.56848344 -147 326 C-148.30465632 325.55719977 -149.6093429 325.11448874 -150.9140625 324.671875 C-179.39689428 314.74510617 -205.31109755 299.19664389 -227.24609375 278.54296875 C-229.18522465 276.75236703 -231.11585766 275.05613451 -233.15234375 273.38671875 C-241.62736907 266.28350822 -248.22239936 256.69092981 -255 248 C-255.69480469 247.12472656 -256.38960938 246.24945313 -257.10546875 245.34765625 C-260.3857363 240.91423052 -261.66213818 237.58564363 -261.6015625 232.04296875 C-260.72107989 229.05275833 -259.45963728 227.91567903 -257 226 C-254.42518585 224.97875349 -252.02962566 224.16124178 -249.375 223.4375 C-248.62283203 223.22697998 -247.87066406 223.01645996 -247.09570312 222.79956055 C-230.66156385 218.36200199 -213.93174435 217.14592729 -197 216 C-197.54527344 215.175 -198.09054688 214.35 -198.65234375 213.5 C-218.3849843 183.39269382 -244.25171845 138.4961403 -239 101 C-237.98046875 98.71875 -237.98046875 98.71875 -236 97 C-229.53339269 95.44255962 -223.7818125 96.35959676 -217.3125 97.5625 C-215.80018799 97.83876221 -215.80018799 97.83876221 -214.25732422 98.12060547 C-187.94026534 103.13200598 -163.33119544 112.93008122 -140 126 C-140.13277344 125.40574219 -140.26554687 124.81148438 -140.40234375 124.19921875 C-144.64793162 104.27284649 -144.18751231 82.88209662 -141.6875 62.75 C-141.51105957 61.31587769 -141.51105957 61.31587769 -141.33105469 59.8527832 C-139.23909682 44.82252066 -139.23909682 44.82252066 -134.3125 40.8125 C-127.46419207 39.13272636 -121.30558922 42.54813962 -115.5 45.9375 C-114.81639404 46.3308252 -114.13278809 46.72415039 -113.4284668 47.12939453 C-100.68135155 54.58792155 -89.0142444 63.18166754 -78 73 C-77.48453613 73.45375 -76.96907227 73.9075 -76.43798828 74.375 C-69.1101265 80.83765543 -62.4284206 87.64713838 -56 95 C-55.79955078 94.31711914 -55.59910156 93.63423828 -55.39257812 92.93066406 C-46.346559 62.31573541 -34.29912791 21.7738396 -9 0 C-5.37580435 -1.20806522 -3.66716248 -1.0268055 0 0 Z " fill="#FF9A9F" transform="translate(261,87)"/>
<path d="M0 0 C3.74584106 3.49785855 6.54231238 7.05891201 9.125 11.5 C9.50261475 12.14308105 9.88022949 12.78616211 10.26928711 13.44873047 C11.53039782 15.6229887 12.76900308 17.80855494 14 20 C14.67071533 21.19351074 14.67071533 21.19351074 15.35498047 22.41113281 C26.46075124 42.39294432 33.64853957 63.0976864 40 85 C40.4125 84.55197021 40.825 84.10394043 41.25 83.64233398 C43.16242482 81.57009576 45.08116219 79.50380068 47 77.4375 C47.64839844 76.73302734 48.29679687 76.02855469 48.96484375 75.30273438 C53.39686216 70.54160568 58.02316073 66.18532822 63 62 C63.57057129 61.51281494 64.14114258 61.02562988 64.72900391 60.52368164 C74.83990039 51.96158123 85.63404682 44.78497874 97 38 C97.5995752 37.64083496 98.19915039 37.28166992 98.81689453 36.91162109 C103.88599799 33.90855439 108.05854743 31.60692257 114 31 C117.1875 31.9375 117.1875 31.9375 120 34 C129.34994129 55.09551431 130.36236008 93.79885323 124 116 C120.08420264 121.06245515 114.38466461 124.19585574 109.0625 127.625 C97.37166649 135.29229288 86.52957652 143.4772738 76.23046875 152.953125 C74.16703726 154.84671187 72.06425419 156.67826164 69.9375 158.5 C62.70506173 164.83201423 56.2905623 171.63956674 50.296875 179.15234375 C48.80098091 181.00694714 47.27082134 182.83458714 45.703125 184.62890625 C21.04664775 212.9516244 2.47082332 249.7277095 -6.2109375 286.19921875 C-7 289 -7 289 -9 292 C-15.58200421 281.3447063 -21.30776239 270.64409818 -26.12695312 259.08007812 C-26.9097332 257.21506521 -27.72617782 255.36426612 -28.546875 253.515625 C-40.05130605 226.67195254 -46.70098502 196.2148706 -47 167 C-47.01901367 165.93845703 -47.03802734 164.87691406 -47.05761719 163.78320312 C-47.32691865 147.73989956 -47.00241431 131.92843813 -45 116 C-44.90348145 115.2157666 -44.80696289 114.4315332 -44.70751953 113.62353516 C-39.48012796 72.79151262 -24.8972106 32.94907446 0 0 Z " fill="#FFB2B6" transform="translate(268,96)"/>
<path d="M0 0 C1.15628906 0.09023437 2.31257813 0.18046875 3.50390625 0.2734375 C6.4375 0.625 6.4375 0.625 8.4375 1.625 C9.07250977 3.72851562 9.07250977 3.72851562 9.62890625 6.53125 C9.84635498 7.57240967 10.06380371 8.61356934 10.2878418 9.6862793 C10.522854 10.82105713 10.75786621 11.95583496 11 13.125 C19.30956914 50.83646032 37.02532281 85.78091714 61.4375 115.625 C61.9128418 116.20926758 62.38818359 116.79353516 62.87792969 117.39550781 C71.95285166 128.48990158 81.40638043 139.43887402 92.4375 148.625 C93.4171875 149.49253906 94.396875 150.36007812 95.40625 151.25390625 C109.56572986 163.76974486 124.72626538 174.30470774 141.27099609 183.42431641 C143.20106794 184.49396857 145.11197639 185.59012497 147.01953125 186.69921875 C170.30038679 199.81631793 195.4118285 207.4198657 221.4375 212.625 C221.4375 219.885 221.4375 227.145 221.4375 234.625 C218.1375 234.625 214.8375 234.625 211.4375 234.625 C208.13643745 235.32530639 204.98344921 236.0819354 201.75 237 C193.31501284 239.24681599 185.14108089 240.77442278 176.4375 241.625 C175.365 241.73585938 174.2925 241.84671875 173.1875 241.9609375 C141.56796227 244.82839558 109.29832002 240.19348344 79.4375 229.625 C78.13284368 229.18219977 76.8281571 228.73948874 75.5234375 228.296875 C47.04060572 218.37010617 21.12640245 202.82164389 -0.80859375 182.16796875 C-2.74772465 180.37736703 -4.67835766 178.68113451 -6.71484375 177.01171875 C-15.18986907 169.90850822 -21.78489936 160.31592981 -28.5625 151.625 C-29.25730469 150.74972656 -29.95210937 149.87445313 -30.66796875 148.97265625 C-33.9482363 144.53923052 -35.22463818 141.21064363 -35.1640625 135.66796875 C-34.28357989 132.67775833 -33.02213728 131.54067903 -30.5625 129.625 C-27.98768585 128.60375349 -25.59212566 127.78624178 -22.9375 127.0625 C-22.18533203 126.85197998 -21.43316406 126.64145996 -20.65820312 126.42456055 C-4.22406385 121.98700199 12.50575565 120.77092729 29.4375 119.625 C28.61958984 118.3875 28.61958984 118.3875 27.78515625 117.125 C8.0525157 87.01769382 -17.81421845 42.1211403 -12.5625 4.625 C-9.38842823 -0.81094695 -5.86586556 -0.48499894 0 0 Z " fill="#FF8086" transform="translate(34.5625,183.375)"/>
<path d="M0 0 C1.94293024 0.24236962 3.88738797 0.48882078 5.81347656 0.84082031 C7.96188228 1.20211071 10.06877864 1.38096591 12.2421875 1.5234375 C21.31362092 2.16676727 30.16838921 3.69151753 39.0625 5.5625 C40.01833984 5.75932373 40.97417969 5.95614746 41.95898438 6.15893555 C47.79453084 7.45281067 52.6904655 9.18561266 57.875 12.1875 C59.75281442 15.94312883 59.8138342 19.20021594 58.875 23.1875 C55.98237382 28.20532092 52.49294375 32.67604552 48.875 37.1875 C48.09898437 38.17492187 47.32296875 39.16234375 46.5234375 40.1796875 C39.27280293 49.22376525 31.76796282 57.74079757 22.875 65.1875 C21.96492187 65.99703125 21.05484375 66.8065625 20.1171875 67.640625 C-18.45724316 101.71625459 -71.83975785 121.84861173 -123.125 123.1875 C-124.35347656 123.22746094 -125.58195312 123.26742187 -126.84765625 123.30859375 C-147.18393403 123.65465653 -167.62464718 121.01160538 -187.125 115.1875 C-186.63 114.1975 -186.63 114.1975 -186.125 113.1875 C-184.03393555 112.68847656 -184.03393555 112.68847656 -181.26171875 112.328125 C-180.24013672 112.18552246 -179.21855469 112.04291992 -178.16601562 111.89599609 C-176.50602539 111.66904053 -176.50602539 111.66904053 -174.8125 111.4375 C-141.29818003 106.40464906 -108.99210739 92.3544698 -81.125 73.1875 C-80.54169922 72.7867627 -79.95839844 72.38602539 -79.35742188 71.97314453 C-67.84809746 64.02401297 -57.1742782 55.30715388 -46.94921875 45.765625 C-44.98360451 43.97128835 -43.02474325 42.26299404 -40.96875 40.58203125 C-38.70055153 38.67213336 -36.82450575 36.8863715 -34.9375 34.625 C-31.61495346 30.71355571 -28.13145787 26.98083512 -24.58618164 23.27026367 C-21.75580699 20.22593494 -19.34133983 17.11147692 -17.0546875 13.63671875 C-8.01148874 0.07753054 -8.01148874 0.07753054 0 0 Z " fill="#FF8086" transform="translate(453.125,302.8125)"/>
<path d="M0 0 C1.02540894 0.58998779 1.02540894 0.58998779 2.0715332 1.19189453 C14.8192922 8.65079822 26.48369469 17.24574794 37.5 27.0625 C38.26521973 27.73514893 38.26521973 27.73514893 39.04589844 28.42138672 C42.09021662 31.10181525 45.07300286 33.83404511 48.00195312 36.64013672 C49.03108448 37.6172748 50.07222306 38.58187334 51.12304688 39.53564453 C52.7410514 41.01272298 54.30966067 42.52992824 55.875 44.0625 C56.81085938 44.949375 57.74671875 45.83625 58.7109375 46.75 C61.45246869 51.82602282 59.83349047 55.6521631 58.5 61.0625 C52.94708481 89.79871464 54.09111855 118.93618685 54.5 148.0625 C51.5493303 145.12961498 48.63275752 142.17706302 45.79296875 139.13671875 C45.12330078 138.42193359 44.45363281 137.70714844 43.76367188 136.97070312 C42.39086901 135.50233356 41.01846631 134.03358976 39.64648438 132.56445312 C30.40123555 122.64764898 30.40123555 122.64764898 20.25 113.6875 C17.38259732 111.39279334 14.53827162 109.09563962 11.76171875 106.69140625 C4.52974291 100.43969823 -3.10668757 95.1386267 -11.10546875 89.921875 C-11.81944824 89.45305908 -12.53342773 88.98424316 -13.26904297 88.5012207 C-14.83095645 87.49395914 -16.40981726 86.5127188 -18.00048828 85.55151367 C-19.21647705 84.79704956 -19.21647705 84.79704956 -20.45703125 84.02734375 C-21.19542236 83.58253662 -21.93381348 83.13772949 -22.69458008 82.67944336 C-26.32413559 79.42879479 -26.19211857 74.66422784 -26.5 70.0625 C-26.57959961 69.29236572 -26.65919922 68.52223145 -26.74121094 67.72875977 C-28.47119751 50.87062549 -28.27511515 33.62364512 -26.1875 16.8125 C-26.06987305 15.85641846 -25.95224609 14.90033691 -25.83105469 13.9152832 C-23.73909682 -1.11497934 -23.73909682 -1.11497934 -18.8125 -5.125 C-11.96419207 -6.80477364 -5.80558922 -3.38936038 0 0 Z " fill="#FFCACD" transform="translate(145.5,132.9375)"/>
<path d="M0 0 C3.12953069 4.01610476 3.85973512 8.33665163 4.625 13.25 C4.74617188 13.96285156 4.86734375 14.67570312 4.9921875 15.41015625 C5.35576701 17.60348916 5.68400867 19.79933731 6 22 C6.09933838 22.65170166 6.19867676 23.30340332 6.30102539 23.97485352 C7.34004403 31.75124417 7.19991221 39.60709542 7.1875 47.4375 C7.18656342 48.19267914 7.18562683 48.94785828 7.18466187 49.72592163 C7.10229585 80.28209162 7.10229585 80.28209162 3.0390625 85.53515625 C-1.09247635 88.8860573 -5.46903396 91.74590553 -9.9375 94.625 C-21.62833351 102.29229288 -32.47042348 110.4772738 -42.76953125 119.953125 C-44.83296274 121.84671187 -46.93574581 123.67826164 -49.0625 125.5 C-56.47446607 131.98919118 -62.9723769 138.96480282 -69.0546875 146.71484375 C-71 149 -71 149 -74 151 C-73.93143799 150.09628662 -73.86287598 149.19257324 -73.79223633 148.26147461 C-73.12902294 139.02814301 -72.72271226 129.82290639 -72.6875 120.5625 C-72.68454926 119.86455322 -72.68159851 119.16660645 -72.67855835 118.44750977 C-72.66824205 107.52762863 -73.40801363 96.8267454 -74.8125 86 C-74.94214142 84.98918365 -74.94214142 84.98918365 -75.07440186 83.95794678 C-75.88175115 77.77813668 -76.76479381 71.6618874 -78.25 65.60546875 C-80.72485295 55.47668555 -80.72485295 55.47668555 -78.42578125 50.79296875 C-76.13729511 47.89059329 -73.74409917 45.47011078 -71 43 C-69.80952364 41.75283429 -68.62165877 40.50316569 -67.4375 39.25 C-63.74343155 35.68995671 -59.92916052 32.29824603 -56 29 C-55.50032715 28.57589844 -55.0006543 28.15179688 -54.48583984 27.71484375 C-14.68622289 -5.87448916 -14.68622289 -5.87448916 0 0 Z " fill="#FFCACD" transform="translate(387,129)"/>
</svg>
