<?xml version="1.0" encoding="iso-8859-1"?>
<!-- Uploaded to: SVG Repo, www.svgrepo.com, Generator: SVG Repo Mixer Tools -->
<svg fill="#000000" height="800px" width="800px" version="1.1" id="Layer_1" xmlns="http://www.w3.org/2000/svg" xmlns:xlink="http://www.w3.org/1999/xlink" 
	 viewBox="0 0 512 512" xml:space="preserve">
<g>
	<g>
		<path d="M231.467,486.4h-34.133c-4.713,0-8.533,3.817-8.533,8.533c0,4.717,3.821,8.533,8.533,8.533h34.133
			c4.713,0,8.533-3.817,8.533-8.533C240,490.217,236.179,486.4,231.467,486.4z"/>
	</g>
</g>
<g>
	<g>
		<path d="M316.8,486.4h-34.133c-4.713,0-8.533,3.817-8.533,8.533c0,4.717,3.821,8.533,8.533,8.533H316.8
			c4.713,0,8.533-3.817,8.533-8.533C325.333,490.217,321.513,486.4,316.8,486.4z"/>
	</g>
</g>
<g>
	<g>
		<path d="M288.7,190.233l-8.533-8.533c-3.333-3.333-8.733-3.333-12.067,0c-3.333,3.333-3.333,8.733,0,12.067l8.533,8.533
			c1.667,1.667,3.85,2.5,6.033,2.5s4.367-0.833,6.033-2.5C292.033,198.967,292.033,193.567,288.7,190.233z"/>
	</g>
</g>
<g>
	<g>
		<path d="M256,8.533C150.254,8.533,0,127.692,0,238.942v34.116c0,75.292,62.288,136.217,137.542,136.217h37.78
			c5.495,12.8,16.678,22.269,29.478,25.065v52.06c0,4.717,3.821,8.533,8.533,8.533c4.713,0,8.533-3.817,8.533-8.533v-52.073
			c10.667-2.111,20.176-8.006,26.462-16.627c5.446,0.567,10.704,0.567,16.142,0c6.289,8.621,17.129,14.517,25.663,16.627V486.4
			c0,4.717,3.821,8.533,8.533,8.533s8.533-3.817,8.533-8.533v-52.06c14.933-2.796,26.118-12.264,31.613-25.065h37.783
			c75.25,0,135.404-60.925,135.404-136.208v-34.091C512,127.717,361.746,8.533,256,8.533z M307.2,416.64v-7.04
			c0-4.717-3.821-8.533-8.533-8.533s-8.533,3.817-8.533,8.533v7.075c-4.267-2.106-10.516-6.398-13.587-12.208
			c-1.496-2.825-4.154-4.542-7.271-4.542c-0.517,0-0.908,0.05-1.429,0.142c-7.142,1.325-14.612,1.333-21.762,0
			c-3.65-0.633-7.854,1.108-9.6,4.408c-3.069,5.804-8.217,10.094-14.617,12.2V409.6c0-4.717-3.821-8.533-8.533-8.533
			c-4.713,0-8.533,3.817-8.533,8.533v7.04c-8.533-3.525-16.533-12.985-16.533-24.106c0-7.892,3.829-15.225,10.038-20.125
			c2.929-2.317,4.15-6.267,2.817-9.75c-2.604-6.8-3.854-13.966-3.854-21.325c0-24.475,14.154-46.216,36.833-55.4
			c3.225-1.3,4.833-4.433,4.833-7.908v-81.758c0-18.825,15.846-34.133,34.667-34.133c18.821,0,34.4,15.308,34.4,34.133
			c0,16.175-11.879,30.233-27.696,33.442c-3.979,0.808-7.238,4.308-7.238,8.367v39.95c0,3.475,2.642,6.608,5.867,7.908
			c22.679,9.183,37.6,30.925,37.6,55.4c0,7.359-1.183,14.533-3.783,21.325c-1.333,3.484-0.179,7.433,2.75,9.75
			c6.208,4.9,9.267,12.233,9.267,20.125C324.767,403.654,317.867,413.115,307.2,416.64z M325.743,306.737
			c37.995-3.171,67.857-32.354,67.857-67.885c0-4.717-3.821-8.494-8.533-8.494c-4.713,0-8.533,3.837-8.533,8.554
			c0,28.233-25.858,51.21-57.642,51.21c-1.35,0-3.143,0.348-4.278,0.906c-6.566-7.571-13.814-13.917-24.48-18.521V244.55
			c10.667-3.046,16.609-8.488,22.358-15.229c1.143,0.569,2.946,0.754,4.308,0.754h8.533c1.025,0,2.038-0.021,2.996-0.379
			l68.267-25.519c3.263-1.225,5.454-4.269,5.533-7.752c0.083-3.483-1.962-6.646-5.167-8.021l-59.733-25.752
			c-1.063-0.458-2.208-0.844-3.363-0.844h-21.61c-9.381-10.667-23.526-16.904-38.656-16.904c-28.233,0-51.733,23.129-51.733,51.362
			v76.242c-8.533,4.604-16.847,10.954-23.411,18.523c-1.135-0.556-2.66-0.898-4.009-0.898c-31.787,0-57.913-22.975-57.913-51.208
			v-15.917c0-40.842,68.642-95.008,120-95.008c20.075,0,44.917,8.6,67.696,23.592c3.95,2.617,9.367,1.5,11.954-2.433
			c2.592-3.933,1.567-9.225-2.371-11.817c-25.492-16.783-53.987-26.409-77.312-26.409c-56.4,0-137.033,57.967-137.033,112.075
			v15.917c0,35.537,30.398,64.64,68.392,67.812c-2.737,5.477-4.305,10.804-5.674,17.204h-7.547c-43.95,0-80.771-32.85-80.771-73.633
			v-21.992c0-54.308,85.404-134.45,162.133-134.45s162.133,80.159,162.133,134.475v21.967c0,40.783-34.688,73.633-78.633,73.633
			h-7.55C330.581,317.542,328.479,312.215,325.743,306.737z M322.398,178.875h9.719l38.588,16.542l-46.917,17.592h-1.436
			c1.915-4.267,2.981-11.119,2.981-17.067C325.333,189.958,324.293,185.275,322.398,178.875z M331.948,358.075
			c1.264-4.267,1.919-10.667,1.919-17.067h5.633c53.358,0,95.7-40.508,95.7-90.7v-21.967C435.2,155.175,330.025,76.8,256,76.8
			S76.8,155.158,76.8,228.317v21.992c0,50.192,44.479,90.7,97.837,90.7h5.629c0,6.4,0.656,12.8,1.923,17.067h-28.16
			c-56.113,0-102.829-43.058-102.829-96.392v-28.05c0-82.3,122.075-173.9,204.8-173.9c96.921,0,204.8,103.667,204.8,173.925v28.025
			c0,53.333-44.583,96.392-100.692,96.392H331.948z M494.933,273.067c0,65.875-52.496,119.142-118.338,119.142H342.4
			c0-6.4-1.266-10.667-3.579-17.067h21.287c65.521,0,117.758-50.717,117.758-113.458v-28.025
			c0-92.217-130.217-190.992-221.867-190.992S34.133,141.433,34.133,233.633v28.05c0,62.742,54.375,113.458,119.896,113.458h21.287
			c-2.315,6.4-3.583,10.667-3.583,17.067h-34.192c-65.842,0-120.475-53.275-120.475-119.15v-34.116
			C17.067,137.975,159.488,25.6,256,25.6S494.933,138,494.933,238.975V273.067z"/>
	</g>
</g>
</svg>